<?xml version="1.0" encoding="UTF-8" standalone="no"?>
<svg
   id="vector"
   viewBox="0 0 32 32"
   version="1.1"
   xmlns:xlink="http://www.w3.org/1999/xlink"
   xmlns="http://www.w3.org/2000/svg"
   xmlns:svg="http://www.w3.org/2000/svg">
  <defs
     id="defs1">
    <linearGradient
       id="linearGradient1">
      <stop
         style="stop-color:#ff0e00;stop-opacity:0.68235296;"
         offset="0"
         id="stop1"/>
      <stop
         style="stop-color:#ffd500;stop-opacity:1;"
         offset="1"
         id="stop2"/>
    </linearGradient>
    <linearGradient
       xlink:href="#linearGradient1"
       id="linearGradient2"
       x1="5.1839924"
       y1="6.0049295"
       x2="26.53903"
       y2="27.0285"
       gradientUnits="userSpaceOnUse"/>
  </defs>
  <g
     id="g4"
     transform="translate(0.13848837,-0.51684411)">
    <path
       fill="#fdddff"
       d="M 10.424,6.015 C 10.377039,5.995835 10.323178,6.00645 10.287,6.042 l -4.89,4.803 c -0.118,0.116 -0.214,0.344 -0.213,0.51 0.085,9 5.054,11.624 10.426,15.6 0.133,0.098 0.349,0.098 0.482,0 5.476,-3.998 10.332,-6.331 10.447,-15.521 0.002,-0.165 -0.093,-0.395 -0.211,-0.512 L 21.397,6.042 C 21.31731,5.962475 21.181275,6.01942 21.182,6.132 l -0.029,4.701 c -10e-4,0.166 -0.135,0.299 -0.301,0.299 H 10.821 c -0.166,0 -0.3,-0.133 -0.301,-0.299 L 10.503,6.132 C 10.502765,6.080608 10.47158,6.034423 10.424,6.015 Z"
       id="path_0"
       style="fill:url(#linearGradient2)"/>
    <path
       fill="#ffffff"
       d="m 21.182,16.466 c -1.995,3.338 -2.095,3.239 -3.345,1.988"
       id="path_1"/>
    <path
       fill="#ffffff"
       d="m 10.488962,16.466 c 1.995,3.338 2.095,3.239 3.345,1.988"
       id="path_1-7"/>
  </g>
</svg>
