<svg viewBox="0 0 512 512" xmlns="http://www.w3.org/2000/svg" fill-rule="evenodd" clip-rule="evenodd" stroke-linejoin="round" stroke-miterlimit="2"><path d="M256 506c138.078 0 250-111.922 250-250S394.078 6 256 6 6 117.922 6 256s111.922 250 250 250z" fill="#0dbd8b"/><path d="M210.344 122.484c0-10.093 8.203-18.28 18.312-18.28 68.531 0 124.094 55.452 124.094 123.843 0 10.094-8.188 18.266-18.313 18.266-10.109 0-18.296-8.172-18.296-18.266 0-48.219-39.172-87.297-87.485-87.297-10.11 0-18.312-8.188-18.312-18.266z" fill="#fff"/><path d="M389.5 209.797c10.11 0 18.313 8.187 18.313 18.266 0 68.406-55.563 123.843-124.11 123.843-10.11 0-18.297-8.172-18.297-18.265 0-10.094 8.188-18.282 18.297-18.282 48.328 0 87.485-39.078 87.485-87.296 0-10.079 8.203-18.266 18.312-18.266z" fill="#fff"/><path d="M301.969 389.484c0 10.094-8.188 18.266-18.313 18.266-68.531 0-124.094-55.437-124.094-123.828 0-10.094 8.204-18.281 18.313-18.281 10.11 0 18.313 8.187 18.313 18.28 0 48.204 39.156 87.298 87.468 87.298 10.125 0 18.313 8.172 18.313 18.265z" fill="#fff"/><path d="M122.578 302.234c-10.11 0-18.312-8.187-18.312-18.28 0-68.392 55.562-123.845 124.093-123.845 10.125 0 18.313 8.188 18.313 18.282 0 10.093-8.188 18.265-18.313 18.265-48.312 0-87.468 39.094-87.468 87.297 0 10.094-8.203 18.281-18.313 18.281z" fill="#fff"/></svg>